# xmcd
#
# Track frame offsets: 
#        150
#        21903
#        58010
#        82838
#        106849
#        131775
#        151249
#        170719
#        192173
#        219133
#        240216
#        263328
#        289024
#
# Disc length: 4492 seconds
#
# Revision: 0
# Processed by: cddbd v1.5.2PL0 Copyright (c) Steve Scherf et al.
# Submitted via: ExactAudioCopyFreeDBPlugin 1.0
#
DISCID=a0118a0d
DTITLE=Blindside Blues Band - Live At The Crossroads
DYEAR=2012
DGENRE=Blues
TTITLE0=Let The Blues Do The Healing
TTITLE1=Crying Shame
TTITLE2=Night Train
TTITLE3=Raised On Rock
TTITLE4=Born With The Blues
TTITLE5=Renegade
TTITLE6=Hot Shot
TTITLE7=Smokehouse Shuffle
TTITLE8=Bad Luck
TTITLE9=Crossroads
TTITLE10=Climb The Sky
TTITLE11=Mojo Highway
TTITLE12=Ramblin' On My Mind
EXTD=
EXTT0=
EXTT1=
EXTT2=
EXTT3=
EXTT4=
EXTT5=
EXTT6=
EXTT7=
EXTT8=
EXTT9=
EXTT10=
EXTT11=
EXTT12=
PLAYORDER=
